<svg width="120" height="40" viewBox="0 0 120 40" fill="none" xmlns="http://www.w3.org/2000/svg">
<path d="M110.135 0.00013H9.53468C9.16798 0.00013 8.80568 0.00013 8.43995 0.00213C8.1338 0.00413 7.83009 0.00994 7.521 0.01483C6.84951 0.0227318 6.17961 0.0818063 5.5171 0.19154C4.85552 0.303663 4.21467 0.515046 3.61622 0.81854C3.0185 1.1246 2.47235 1.5223 1.99757 1.9972C1.5203 2.47077 1.12246 3.01815 0.81935 3.61829C0.5154 4.21724 0.304641 4.85907 0.19435 5.52161C0.0830109 6.18331 0.0230984 6.85265 0.01515 7.52361C0.00587 7.83021 0.00489 8.13783 0 8.44447V31.5587C0.00489 31.8692 0.00587 32.17 0.01515 32.4806C0.0231008 33.1516 0.0830134 33.8209 0.19435 34.4825C0.304336 35.1455 0.515108 35.7877 0.81935 36.3868C1.12233 36.985 1.52022 37.5302 1.99757 38.0011C2.47054 38.4781 3.01705 38.8761 3.61622 39.1798C4.21467 39.4841 4.85545 39.6968 5.5171 39.8106C6.17972 39.9195 6.84956 39.9786 7.521 39.9874C7.83009 39.9942 8.1338 39.9981 8.43995 39.9981C8.80567 40.0001 9.168 40.0001 9.53468 40.0001H110.135C110.494 40.0001 110.859 40.0001 111.219 39.9981C111.523 39.9981 111.836 39.9942 112.141 39.9874C112.811 39.9791 113.479 39.92 114.141 39.8106C114.804 39.696 115.448 39.4834 116.049 39.1798C116.647 38.8759 117.193 38.478 117.666 38.0011C118.142 37.5284 118.541 36.9836 118.848 36.3868C119.15 35.7872 119.358 35.1451 119.467 34.4825C119.578 33.8208 119.64 33.1516 119.652 32.4806C119.656 32.17 119.656 31.8692 119.656 31.5587C119.664 31.1954 119.664 30.8341 119.664 30.4649V9.53626C119.664 9.17005 119.664 8.80677 119.656 8.44447C119.656 8.13783 119.656 7.83021 119.652 7.52357C119.64 6.85255 119.578 6.18337 119.467 5.52157C119.358 4.85941 119.149 4.21763 118.848 3.61825C118.23 2.41533 117.252 1.43616 116.049 0.81845C115.448 0.515697 114.804 0.30437 114.141 0.19145C113.48 0.0812328 112.811 0.0221378 112.141 0.01469C111.836 0.00981 111.523 0.00395 111.219 0.002C110.859 0 110.494 0 110.135 0V0.00013Z" fill="black"/>
<path d="M8.44484 39.1251C8.14016 39.1251 7.84284 39.1212 7.54055 39.1144C6.91433 39.1063 6.28957 39.0517 5.67141 38.9513C5.095 38.852 4.53661 38.6674 4.01467 38.4034C3.49751 38.1416 3.02582 37.7984 2.61767 37.3868C2.20361 36.9801 1.85888 36.5084 1.59716 35.9903C1.33255 35.4689 1.14942 34.91 1.05416 34.3331C0.951281 33.7132 0.895621 33.0864 0.887656 32.4581C0.881316 32.2472 0.873016 31.545 0.873016 31.545V8.44446C0.873016 8.44446 0.881856 7.75305 0.887706 7.54992C0.895332 6.9226 0.950668 6.29678 1.05324 5.67785C1.14868 5.09937 1.33194 4.53887 1.5967 4.01575C1.85746 3.49807 2.20027 3.02598 2.61184 2.6178C3.02294 2.20574 3.49614 1.86073 4.01418 1.59533C4.53492 1.33222 5.09225 1.14885 5.6675 1.05139C6.28769 0.949958 6.91462 0.895118 7.54301 0.887332L8.44533 0.875122H111.214L112.127 0.887822C112.75 0.895221 113.371 0.949572 113.985 1.05041C114.566 1.1491 115.13 1.33374 115.656 1.59826C116.694 2.13311 117.539 2.97929 118.071 4.01819C118.332 4.5377 118.512 5.09363 118.606 5.66711C118.71 6.29111 118.768 6.92186 118.78 7.55432C118.783 7.83752 118.783 8.14172 118.783 8.44446C118.791 8.81946 118.791 9.17639 118.791 9.53625V30.4649C118.791 30.8282 118.791 31.1827 118.783 31.5401C118.783 31.8653 118.783 32.1632 118.779 32.4698C118.768 33.091 118.71 33.7105 118.608 34.3233C118.515 34.9044 118.333 35.4676 118.068 35.9933C117.805 36.5057 117.462 36.9734 117.053 37.379C116.644 37.7928 116.172 38.1381 115.653 38.4015C115.128 38.6675 114.566 38.8529 113.985 38.9513C113.367 39.0523 112.742 39.1068 112.116 39.1144C111.823 39.1212 111.517 39.1251 111.219 39.1251L110.135 39.1271L8.44484 39.1251Z" fill="white"/>
<path fill-rule="evenodd" clip-rule="evenodd" d="M23.3151 7.84705C23.4158 9.16172 23 10.4639 22.1561 11.4769C21.3374 12.4953 20.0968 13.0818 18.7902 13.0684C18.7071 11.7915 19.135 10.5341 19.9795 9.57287C20.8349 8.59866 22.0258 7.98246 23.3151 7.84705ZM27.4473 15.5718C25.9443 16.4958 25.0194 18.1253 24.9967 19.8895C24.9988 21.8854 26.1941 23.6867 28.0324 24.4642C27.6789 25.6127 27.146 26.698 26.4534 27.6801C25.5233 29.0713 24.5482 30.4306 23.0004 30.4557C22.2643 30.4727 21.7674 30.261 21.2496 30.0404C20.7096 29.8104 20.1468 29.5706 19.2661 29.5706C18.3322 29.5706 17.7442 29.8181 17.1771 30.0568C16.687 30.263 16.2126 30.4627 15.5439 30.4904C14.0699 30.545 12.9434 29.0055 11.9796 27.6273C10.053 24.8126 8.55294 19.6953 10.564 16.2133C11.5085 14.5162 13.2743 13.4393 15.2154 13.3766C16.0514 13.3594 16.8536 13.6816 17.5569 13.9641C18.0948 14.1801 18.5748 14.3729 18.9679 14.3729C19.3134 14.3729 19.7801 14.1877 20.3239 13.9719C21.1805 13.6319 22.2287 13.2159 23.2969 13.328C24.9567 13.3799 26.4948 14.2115 27.4473 15.5718Z" fill="black"/>
<path d="M35.557 14.28V9.294H36.997C37.393 9.294 37.726 9.351 37.996 9.465C38.266 9.573 38.485 9.735 38.653 9.951C38.827 10.161 38.95 10.419 39.022 10.725C39.1 11.025 39.139 11.367 39.139 11.751C39.139 12.147 39.097 12.486 39.013 12.768C38.935 13.044 38.833 13.275 38.707 13.461C38.581 13.647 38.437 13.794 38.275 13.902C38.119 14.01 37.96 14.094 37.798 14.154C37.636 14.208 37.483 14.244 37.339 14.262C37.195 14.274 37.075 14.28 36.979 14.28H35.557ZM34.702 8.574V15H36.907C37.441 15 37.903 14.925 38.293 14.775C38.683 14.625 39.004 14.409 39.256 14.127C39.508 13.839 39.694 13.488 39.814 13.074C39.934 12.654 39.994 12.174 39.994 11.634C39.994 10.602 39.727 9.834 39.193 9.33C38.659 8.826 37.897 8.574 36.907 8.574H34.702ZM41.4709 12.678C41.4709 12.396 41.5069 12.147 41.5789 11.931C41.6569 11.709 41.7619 11.523 41.8939 11.373C42.0259 11.223 42.1789 11.109 42.3529 11.031C42.5329 10.953 42.7219 10.914 42.9199 10.914C43.1179 10.914 43.3039 10.953 43.4779 11.031C43.6579 11.109 43.8139 11.223 43.9459 11.373C44.0779 11.523 44.1799 11.709 44.2519 11.931C44.3299 12.147 44.3689 12.396 44.3689 12.678C44.3689 12.96 44.3299 13.212 44.2519 13.434C44.1799 13.65 44.0779 13.833 43.9459 13.983C43.8139 14.127 43.6579 14.238 43.4779 14.316C43.3039 14.394 43.1179 14.433 42.9199 14.433C42.7219 14.433 42.5329 14.394 42.3529 14.316C42.1789 14.238 42.0259 14.127 41.8939 13.983C41.7619 13.833 41.6569 13.65 41.5789 13.434C41.5069 13.212 41.4709 12.96 41.4709 12.678ZM40.6609 12.678C40.6609 13.02 40.7089 13.338 40.8049 13.632C40.9009 13.926 41.0449 14.184 41.2369 14.406C41.4289 14.622 41.6659 14.793 41.9479 14.919C42.2299 15.039 42.5539 15.099 42.9199 15.099C43.2919 15.099 43.6159 15.039 43.8919 14.919C44.1739 14.793 44.4109 14.622 44.6029 14.406C44.7949 14.184 44.9389 13.926 45.0349 13.632C45.1309 13.338 45.1789 13.02 45.1789 12.678C45.1789 12.336 45.1309 12.018 45.0349 11.724C44.9389 11.424 44.7949 11.166 44.6029 10.95C44.4109 10.728 44.1739 10.554 43.8919 10.428C43.6159 10.302 43.2919 10.239 42.9199 10.239C42.5539 10.239 42.2299 10.302 41.9479 10.428C41.6659 10.554 41.4289 10.728 41.2369 10.95C41.0449 11.166 40.9009 11.424 40.8049 11.724C40.7089 12.018 40.6609 12.336 40.6609 12.678ZM50.6889 15L52.1739 10.347H51.3819L50.3379 14.154H50.3199L49.3479 10.347H48.5109L47.5749 14.154H47.5569L46.5039 10.347H45.6579L47.1519 15H47.9799L48.9159 11.301H48.9339L49.8789 15H50.6889ZM52.9012 10.347V15H53.6662V12.372C53.6662 12.162 53.6932 11.97 53.7472 11.796C53.8072 11.616 53.8942 11.46 54.0082 11.328C54.1222 11.196 54.2632 11.094 54.4312 11.022C54.6052 10.95 54.8092 10.914 55.0432 10.914C55.3372 10.914 55.5682 10.998 55.7362 11.166C55.9042 11.334 55.9882 11.562 55.9882 11.85V15H56.7532V11.94C56.7532 11.688 56.7262 11.46 56.6722 11.256C56.6242 11.046 56.5372 10.866 56.4112 10.716C56.2852 10.566 56.1202 10.449 55.9162 10.365C55.7122 10.281 55.4572 10.239 55.1512 10.239C54.4612 10.239 53.9572 10.521 53.6392 11.085H53.6212V10.347H52.9012ZM57.9472 8.574V15H58.7122V8.574H57.9472ZM60.4553 12.678C60.4553 12.396 60.4913 12.147 60.5633 11.931C60.6413 11.709 60.7463 11.523 60.8783 11.373C61.0103 11.223 61.1633 11.109 61.3373 11.031C61.5173 10.953 61.7063 10.914 61.9043 10.914C62.1023 10.914 62.2883 10.953 62.4623 11.031C62.6423 11.109 62.7983 11.223 62.9303 11.373C63.0623 11.523 63.1643 11.709 63.2363 11.931C63.3143 12.147 63.3533 12.396 63.3533 12.678C63.3533 12.96 63.3143 13.212 63.2363 13.434C63.1643 13.65 63.0623 13.833 62.9303 13.983C62.7983 14.127 62.6423 14.238 62.4623 14.316C62.2883 14.394 62.1023 14.433 61.9043 14.433C61.7063 14.433 61.5173 14.394 61.3373 14.316C61.1633 14.238 61.0103 14.127 60.8783 13.983C60.7463 13.833 60.6413 13.65 60.5633 13.434C60.4913 13.212 60.4553 12.96 60.4553 12.678ZM59.6453 12.678C59.6453 13.02 59.6933 13.338 59.7893 13.632C59.8853 13.926 60.0293 14.184 60.2213 14.406C60.4133 14.622 60.6503 14.793 60.9323 14.919C61.2143 15.039 61.5383 15.099 61.9043 15.099C62.2763 15.099 62.6003 15.039 62.8763 14.919C63.1583 14.793 63.3953 14.622 63.5873 14.406C63.7793 14.184 63.9233 13.926 64.0193 13.632C64.1153 13.338 64.1633 13.02 64.1633 12.678C64.1633 12.336 64.1153 12.018 64.0193 11.724C63.9233 11.424 63.7793 11.166 63.5873 10.95C63.3953 10.728 63.1583 10.554 62.8763 10.428C62.6003 10.302 62.2763 10.239 61.9043 10.239C61.5383 10.239 61.2143 10.302 60.9323 10.428C60.6503 10.554 60.4133 10.728 60.2213 10.95C60.0293 11.166 59.8853 11.424 59.7893 11.724C59.6933 12.018 59.6453 12.336 59.6453 12.678ZM69.1873 14.982V14.388C69.0973 14.418 69.0193 14.433 68.9533 14.433C68.8333 14.433 68.7613 14.391 68.7373 14.307C68.7193 14.223 68.7103 14.091 68.7103 13.911V11.517C68.7103 11.247 68.6593 11.028 68.5573 10.86C68.4553 10.692 68.3203 10.563 68.1523 10.473C67.9843 10.377 67.7953 10.314 67.5853 10.284C67.3813 10.254 67.1743 10.239 66.9643 10.239C66.7063 10.239 66.4603 10.266 66.2263 10.32C65.9923 10.374 65.7853 10.464 65.6053 10.59C65.4253 10.71 65.2813 10.869 65.1733 11.067C65.0653 11.265 65.0053 11.508 64.9933 11.796H65.7583C65.7763 11.454 65.8933 11.223 66.1093 11.103C66.3253 10.977 66.5953 10.914 66.9193 10.914C67.0393 10.914 67.1593 10.923 67.2793 10.941C67.4053 10.959 67.5163 10.995 67.6123 11.049C67.7143 11.103 67.7953 11.181 67.8553 11.283C67.9213 11.385 67.9543 11.52 67.9543 11.688C67.9543 11.832 67.9123 11.943 67.8283 12.021C67.7443 12.093 67.6303 12.15 67.4863 12.192C67.3423 12.228 67.1743 12.258 66.9823 12.282C66.7963 12.3 66.5983 12.33 66.3883 12.372C66.1903 12.408 65.9953 12.453 65.8033 12.507C65.6173 12.561 65.4493 12.642 65.2993 12.75C65.1553 12.852 65.0383 12.987 64.9483 13.155C64.8583 13.323 64.8133 13.539 64.8133 13.803C64.8133 14.037 64.8523 14.238 64.9303 14.406C65.0143 14.568 65.1253 14.703 65.2633 14.811C65.4073 14.913 65.5723 14.985 65.7583 15.027C65.9443 15.075 66.1423 15.099 66.3523 15.099C66.6763 15.099 66.9763 15.045 67.2523 14.937C67.5343 14.823 67.7803 14.64 67.9903 14.388C67.9903 14.64 68.0473 14.823 68.1613 14.937C68.2813 15.045 68.4403 15.099 68.6383 15.099C68.8723 15.099 69.0553 15.06 69.1873 14.982ZM67.9453 12.597V13.38C67.9453 13.488 67.9183 13.605 67.8643 13.731C67.8103 13.851 67.7263 13.965 67.6123 14.073C67.4983 14.175 67.3513 14.262 67.1713 14.334C66.9913 14.4 66.7753 14.433 66.5233 14.433C66.4093 14.433 66.2953 14.421 66.1813 14.397C66.0733 14.373 65.9773 14.334 65.8933 14.28C65.8153 14.226 65.7493 14.157 65.6953 14.073C65.6473 13.983 65.6233 13.875 65.6233 13.749C65.6233 13.557 65.6653 13.407 65.7493 13.299C65.8393 13.185 65.9533 13.098 66.0913 13.038C66.2293 12.978 66.3853 12.936 66.5593 12.912C66.7333 12.882 66.9043 12.858 67.0723 12.84C67.2463 12.816 67.4113 12.789 67.5673 12.759C67.7233 12.723 67.8493 12.669 67.9453 12.597ZM70.4572 12.714C70.4572 12.486 70.4812 12.264 70.5292 12.048C70.5772 11.832 70.6552 11.64 70.7632 11.472C70.8712 11.304 71.0152 11.169 71.1952 11.067C71.3752 10.965 71.5942 10.914 71.8522 10.914C72.1162 10.914 72.3412 10.965 72.5272 11.067C72.7132 11.163 72.8632 11.292 72.9772 11.454C73.0972 11.616 73.1842 11.805 73.2382 12.021C73.2922 12.231 73.3192 12.45 73.3192 12.678C73.3192 12.894 73.2922 13.107 73.2382 13.317C73.1902 13.527 73.1092 13.716 72.9952 13.884C72.8812 14.046 72.7342 14.178 72.5542 14.28C72.3742 14.382 72.1552 14.433 71.8972 14.433C71.6512 14.433 71.4352 14.385 71.2492 14.289C71.0692 14.193 70.9192 14.064 70.7992 13.902C70.6852 13.74 70.5982 13.557 70.5382 13.353C70.4842 13.143 70.4572 12.93 70.4572 12.714ZM74.0572 15V8.574H73.2922V10.968H73.2742C73.1902 10.83 73.0852 10.716 72.9592 10.626C72.8392 10.53 72.7102 10.455 72.5722 10.401C72.4342 10.341 72.2962 10.299 72.1582 10.275C72.0202 10.251 71.8912 10.239 71.7712 10.239C71.4172 10.239 71.1052 10.305 70.8352 10.437C70.5712 10.563 70.3492 10.737 70.1692 10.959C69.9952 11.175 69.8632 11.43 69.7732 11.724C69.6892 12.018 69.6472 12.33 69.6472 12.66C69.6472 12.99 69.6922 13.302 69.7822 13.596C69.8722 13.89 70.0042 14.148 70.1782 14.37C70.3582 14.592 70.5802 14.769 70.8442 14.901C71.1142 15.033 71.4292 15.099 71.7892 15.099C72.1132 15.099 72.4102 15.042 72.6802 14.928C72.9502 14.814 73.1482 14.628 73.2742 14.37H73.2922V15H74.0572ZM78.2971 12.678C78.2971 12.396 78.3331 12.147 78.4051 11.931C78.4831 11.709 78.5881 11.523 78.7201 11.373C78.8521 11.223 79.0051 11.109 79.1791 11.031C79.3591 10.953 79.5481 10.914 79.7461 10.914C79.9441 10.914 80.1301 10.953 80.3041 11.031C80.4841 11.109 80.6401 11.223 80.7721 11.373C80.9041 11.523 81.0061 11.709 81.0781 11.931C81.1561 12.147 81.1951 12.396 81.1951 12.678C81.1951 12.96 81.1561 13.212 81.0781 13.434C81.0061 13.65 80.9041 13.833 80.7721 13.983C80.6401 14.127 80.4841 14.238 80.3041 14.316C80.1301 14.394 79.9441 14.433 79.7461 14.433C79.5481 14.433 79.3591 14.394 79.1791 14.316C79.0051 14.238 78.8521 14.127 78.7201 13.983C78.5881 13.833 78.4831 13.65 78.4051 13.434C78.3331 13.212 78.2971 12.96 78.2971 12.678ZM77.4871 12.678C77.4871 13.02 77.5351 13.338 77.6311 13.632C77.7271 13.926 77.8711 14.184 78.0631 14.406C78.2551 14.622 78.4921 14.793 78.7741 14.919C79.0561 15.039 79.3801 15.099 79.7461 15.099C80.1181 15.099 80.4421 15.039 80.7181 14.919C81.0001 14.793 81.2371 14.622 81.4291 14.406C81.6211 14.184 81.7651 13.926 81.8611 13.632C81.9571 13.338 82.0051 13.02 82.0051 12.678C82.0051 12.336 81.9571 12.018 81.8611 11.724C81.7651 11.424 81.6211 11.166 81.4291 10.95C81.2371 10.728 81.0001 10.554 80.7181 10.428C80.4421 10.302 80.1181 10.239 79.7461 10.239C79.3801 10.239 79.0561 10.302 78.7741 10.428C78.4921 10.554 78.2551 10.728 78.0631 10.95C77.8711 11.166 77.7271 11.424 77.6311 11.724C77.5351 12.018 77.4871 12.336 77.4871 12.678ZM82.9071 10.347V15H83.6721V12.372C83.6721 12.162 83.6991 11.97 83.7531 11.796C83.8131 11.616 83.9001 11.46 84.0141 11.328C84.1281 11.196 84.2691 11.094 84.4371 11.022C84.6111 10.95 84.8151 10.914 85.0491 10.914C85.3431 10.914 85.5741 10.998 85.7421 11.166C85.9101 11.334 85.9941 11.562 85.9941 11.85V15H86.7591V11.94C86.7591 11.688 86.7321 11.46 86.6781 11.256C86.6301 11.046 86.5431 10.866 86.4171 10.716C86.2911 10.566 86.1261 10.449 85.9221 10.365C85.7181 10.281 85.4631 10.239 85.1571 10.239C84.4671 10.239 83.9631 10.521 83.6451 11.085H83.6271V10.347H82.9071ZM91.4749 10.347V8.952H90.7099V10.347H89.9179V11.022H90.7099V13.983C90.7099 14.199 90.7309 14.373 90.7729 14.505C90.8149 14.637 90.8779 14.739 90.9619 14.811C91.0519 14.883 91.1659 14.934 91.3039 14.964C91.4479 14.988 91.6189 15 91.8169 15H92.4019V14.325H92.0509C91.9309 14.325 91.8319 14.322 91.7539 14.316C91.6819 14.304 91.6249 14.283 91.5829 14.253C91.5409 14.223 91.5109 14.181 91.4929 14.127C91.4809 14.073 91.4749 14.001 91.4749 13.911V11.022H92.4019V10.347H91.4749ZM93.2518 8.574V15H94.0168V12.372C94.0168 12.162 94.0438 11.97 94.0978 11.796C94.1578 11.616 94.2448 11.46 94.3588 11.328C94.4728 11.196 94.6138 11.094 94.7818 11.022C94.9558 10.95 95.1598 10.914 95.3938 10.914C95.6878 10.914 95.9188 10.998 96.0868 11.166C96.2548 11.334 96.3388 11.562 96.3388 11.85V15H97.1038V11.94C97.1038 11.688 97.0768 11.46 97.0228 11.256C96.9748 11.046 96.8878 10.866 96.7618 10.716C96.6358 10.566 96.4708 10.449 96.2668 10.365C96.0628 10.281 95.8078 10.239 95.5018 10.239C95.3638 10.239 95.2198 10.254 95.0698 10.284C94.9258 10.314 94.7848 10.362 94.6468 10.428C94.5148 10.488 94.3948 10.569 94.2868 10.671C94.1788 10.767 94.0948 10.887 94.0348 11.031H94.0168V8.574H93.2518ZM101.484 12.228H98.8108C98.8228 12.048 98.8618 11.88 98.9278 11.724C98.9938 11.562 99.0838 11.421 99.1978 11.301C99.3118 11.181 99.4468 11.088 99.6028 11.022C99.7648 10.95 99.9448 10.914 100.143 10.914C100.335 10.914 100.509 10.95 100.665 11.022C100.827 11.088 100.965 11.181 101.079 11.301C101.199 11.415 101.292 11.553 101.358 11.715C101.43 11.877 101.472 12.048 101.484 12.228ZM102.222 13.524H101.466C101.4 13.83 101.262 14.058 101.052 14.208C100.848 14.358 100.584 14.433 100.26 14.433C100.008 14.433 99.7888 14.391 99.6028 14.307C99.4168 14.223 99.2638 14.112 99.1438 13.974C99.0238 13.83 98.9368 13.668 98.8828 13.488C98.8288 13.302 98.8048 13.107 98.8108 12.903H102.294C102.306 12.621 102.279 12.324 102.213 12.012C102.153 11.7 102.039 11.412 101.871 11.148C101.709 10.884 101.49 10.668 101.214 10.5C100.944 10.326 100.602 10.239 100.188 10.239C99.8698 10.239 99.5758 10.299 99.3058 10.419C99.0418 10.539 98.8108 10.707 98.6128 10.923C98.4208 11.139 98.2708 11.394 98.1628 11.688C98.0548 11.982 98.0008 12.306 98.0008 12.66C98.0128 13.014 98.0638 13.341 98.1538 13.641C98.2498 13.941 98.3908 14.199 98.5768 14.415C98.7628 14.631 98.9908 14.799 99.2608 14.919C99.5368 15.039 99.8608 15.099 100.233 15.099C100.761 15.099 101.199 14.967 101.547 14.703C101.895 14.439 102.12 14.046 102.222 13.524Z" fill="black"/>
<path d="M40.8 17.879L45.475 30H43.197L42.041 26.787H37.247L36.057 30H33.864L38.539 17.879H40.8ZM41.48 25.189L39.678 20.089L37.791 25.189H41.48ZM47.8719 21.228V22.401C48.4612 21.449 49.4132 20.973 50.7279 20.973C51.9405 20.973 52.9095 21.398 53.6349 22.248C54.3602 23.098 54.7229 24.2313 54.7229 25.648C54.7229 27.0307 54.3659 28.1413 53.6519 28.98C52.9492 29.8073 52.0085 30.221 50.8299 30.221C49.5832 30.221 48.6312 29.762 47.9739 28.844V33.247H46.0529V21.228H47.8719ZM50.3369 22.537C49.5775 22.537 48.9825 22.809 48.5519 23.353C48.1212 23.897 47.9059 24.6507 47.9059 25.614C47.9059 26.566 48.1212 27.314 48.5519 27.858C48.9939 28.402 49.6002 28.674 50.3709 28.674C51.1075 28.674 51.6912 28.402 52.1219 27.858C52.5525 27.314 52.7679 26.5773 52.7679 25.648C52.7679 24.696 52.5469 23.9423 52.1049 23.387C51.6742 22.8203 51.0849 22.537 50.3369 22.537ZM57.9244 21.228V22.401C58.5138 21.449 59.4658 20.973 60.7804 20.973C61.9931 20.973 62.9621 21.398 63.6874 22.248C64.4128 23.098 64.7754 24.2313 64.7754 25.648C64.7754 27.0307 64.4184 28.1413 63.7044 28.98C63.0018 29.8073 62.0611 30.221 60.8824 30.221C59.6358 30.221 58.6838 29.762 58.0264 28.844V33.247H56.1054V21.228H57.9244ZM60.3894 22.537C59.6301 22.537 59.0351 22.809 58.6044 23.353C58.1738 23.897 57.9584 24.6507 57.9584 25.614C57.9584 26.566 58.1738 27.314 58.6044 27.858C59.0464 28.402 59.6528 28.674 60.4234 28.674C61.1601 28.674 61.7438 28.402 62.1744 27.858C62.6051 27.314 62.8204 26.5773 62.8204 25.648C62.8204 24.696 62.5994 23.9423 62.1574 23.387C61.7268 22.8203 61.1374 22.537 60.3894 22.537ZM79.4745 21.466H77.4515C77.3268 20.0493 76.4485 19.341 74.8165 19.341C74.0911 19.341 73.5245 19.494 73.1165 19.8C72.7085 20.0947 72.5045 20.5027 72.5045 21.024C72.5045 21.5113 72.6518 21.8457 72.9465 22.027C73.2525 22.2083 73.9211 22.4293 74.9525 22.69C75.2245 22.7693 75.4341 22.826 75.5815 22.86C76.9301 23.2 77.8481 23.506 78.3355 23.778C79.4121 24.356 79.9505 25.257 79.9505 26.481C79.9505 27.0137 79.8598 27.4953 79.6785 27.926C79.4971 28.3567 79.2535 28.7193 78.9475 29.014C78.6415 29.2973 78.2788 29.5353 77.8595 29.728C77.4401 29.9207 77.0038 30.0567 76.5505 30.136C76.0971 30.2267 75.6268 30.272 75.1395 30.272C73.6208 30.272 72.3911 29.9093 71.4505 29.184C70.5098 28.4587 70.0395 27.3933 70.0395 25.988H72.1305C72.1305 26.872 72.4195 27.5293 72.9975 27.96C73.5755 28.3793 74.3291 28.589 75.2585 28.589C76.0745 28.589 76.7091 28.4247 77.1625 28.096C77.6271 27.756 77.8595 27.2857 77.8595 26.685C77.8595 26.2997 77.7348 25.988 77.4855 25.75C77.2475 25.5007 76.9868 25.325 76.7035 25.223C76.4201 25.121 75.9271 24.9793 75.2245 24.798C75.1451 24.7753 75.0828 24.7583 75.0375 24.747C73.5301 24.3617 72.5385 24.0443 72.0625 23.795C71.0765 23.285 70.5495 22.4973 70.4815 21.432C70.4815 21.3527 70.4815 21.2733 70.4815 21.194C70.4815 20.1173 70.8838 19.2617 71.6885 18.627C72.5045 17.981 73.5925 17.658 74.9525 17.658C76.2671 17.658 77.3381 17.9697 78.1655 18.593C78.9928 19.2163 79.4291 20.174 79.4745 21.466ZM85.4829 21.228V22.639H83.7149V27.263C83.7149 27.535 83.7206 27.7277 83.7319 27.841C83.7432 27.943 83.7772 28.062 83.8339 28.198C83.8906 28.3227 83.9869 28.4077 84.1229 28.453C84.2702 28.4983 84.4686 28.521 84.7179 28.521C85.0352 28.521 85.2902 28.5097 85.4829 28.487V30.017C85.0976 30.0623 84.6612 30.085 84.1739 30.085C83.8339 30.085 83.5336 30.0567 83.2729 30C83.0236 29.9547 82.8139 29.898 82.6439 29.83C82.4739 29.762 82.3322 29.6487 82.2189 29.49C82.1056 29.32 82.0149 29.184 81.9469 29.082C81.8902 28.9687 81.8449 28.776 81.8109 28.504C81.7882 28.232 81.7769 28.028 81.7769 27.892C81.7769 27.7447 81.7769 27.4953 81.7769 27.144C81.7769 26.9967 81.7769 26.889 81.7769 26.821V22.639H80.3149V21.228H81.7769V18.593H83.7149V21.228H85.4829ZM90.583 20.973C91.9204 20.973 92.9857 21.3923 93.779 22.231C94.5724 23.0697 94.969 24.1973 94.969 25.614C94.969 27.042 94.5724 28.1753 93.779 29.014C92.997 29.8527 91.9317 30.272 90.583 30.272C89.2117 30.272 88.1237 29.8527 87.319 29.014C86.5144 28.1753 86.112 27.042 86.112 25.614C86.112 24.1973 86.5144 23.0697 87.319 22.231C88.135 21.3923 89.223 20.973 90.583 20.973ZM92.351 23.336C91.9204 22.7807 91.3197 22.503 90.549 22.503C89.7784 22.503 89.172 22.7807 88.73 23.336C88.288 23.8913 88.067 24.6507 88.067 25.614C88.067 26.6 88.288 27.3707 88.73 27.926C89.172 28.4813 89.784 28.759 90.566 28.759C91.3254 28.759 91.9204 28.4813 92.351 27.926C92.793 27.3593 93.014 26.583 93.014 25.597C93.014 24.6337 92.793 23.88 92.351 23.336ZM101.221 21.058V22.911C100.881 22.877 100.655 22.86 100.541 22.86C98.8525 22.86 98.0082 23.9537 98.0082 26.141V30H96.0872V21.228H97.9062V22.979C98.5295 21.6757 99.5099 21.024 100.847 21.024L101.221 21.058ZM109.449 27.263C109.234 28.215 108.763 28.9573 108.038 29.49C107.324 30.0227 106.468 30.289 105.471 30.289C104.145 30.289 103.091 29.864 102.309 29.014C101.538 28.1527 101.153 27.0533 101.153 25.716C101.153 24.3447 101.55 23.2113 102.343 22.316C103.148 21.4207 104.168 20.973 105.403 20.973C106.684 20.973 107.698 21.415 108.446 22.299C109.194 23.1717 109.568 24.3673 109.568 25.886V26.09H103.091C103.114 26.974 103.335 27.6597 103.754 28.147C104.173 28.623 104.757 28.861 105.505 28.861C106.038 28.861 106.468 28.7363 106.797 28.487C107.137 28.2263 107.403 27.8183 107.596 27.263H109.449ZM107.63 24.798C107.573 24.0613 107.341 23.4833 106.933 23.064C106.536 22.6333 106.021 22.418 105.386 22.418C104.751 22.418 104.236 22.622 103.839 23.03C103.454 23.438 103.216 24.0273 103.125 24.798H107.63Z" fill="black"/>
</svg>
